<?xml version="1.0" encoding="utf-8"?>
<!-- Svg Vector Icons : http://www.onlinewebfonts.com/icon -->
<!DOCTYPE svg PUBLIC "-//W3C//DTD SVG 1.1//EN" "http://www.w3.org/Graphics/SVG/1.1/DTD/svg11.dtd">
<svg version="1.1" xmlns="http://www.w3.org/2000/svg" xmlns:xlink="http://www.w3.org/1999/xlink" x="0px" y="0px" viewBox="0 0 1000 1000" enable-background="new 0 0 1000 1000" xml:space="preserve">
<metadata> Svg Vector Icons : http://www.onlinewebfonts.com/icon </metadata>
<g><g transform="translate(0.000000,431.000000) scale(0.100000,-0.100000)"><path d="M4702.8,3963.5c-462.1-100.3-880.7-510.1-1000.6-980.9c-45.8-183.1-41.4-490.5,8.7-675.8c74.1-268.1,239.8-516.6,464.3-699.7l82.8-65.4l-270.3-58.8c-329.2-71.9-1033.3-300.8-1168.4-379.3c-157-91.5-309.5-261.6-398.9-442.5c-45.8-89.4-239.8-577.7-436-1081.2l-353.1-919.9l-449.1-388C936-1943.9,630.8-2209.9,502.2-2321c-257.2-222.4-320.4-307.4-377.1-497c-87.2-305.2,58.9-647.4,344.4-806.6c104.6-56.7,135.1-63.2,311.7-61c172.2,0,213.6,8.7,337.9,65.4c213.6,100.3,1477.9,1103,1650.2,1310.1c48,56.7,137.3,194,198.4,300.8c61,109,122.1,211.5,133,228.9c15.3,21.8,21.8-85,21.8-324.8c2.2-348.8,0-359.7-52.3-427.2c-78.5-104.6-270.3-242-782.6-560.2c-848-527.5-991.8-645.2-1124.8-922.1c-93.7-194-115.5-462.1-54.5-647.4c113.3-346.6,416.4-579.8,874.1-673.6c202.7-41.4,298.6-43.6,2971.2-34.9c2988.6,8.7,2888.3,4.4,3272,126.4c329.2,104.7,579.8,309.6,662.7,540.6c65.4,185.3,43.6,433.8-58.9,640.9c-113.4,228.9-320.4,416.3-845.8,765.1c-597.3,396.7-911.2,625.6-1018,741.2l-91.6,100.3v353.1c0,405.4-21.8,401.1,187.5,39.2c146.1-252.9,287.7-390.2,1011.5-967.9c752.1-601.6,848-654,1144.4-656.1c176.6,0,207.1,6.5,311.7,63.2c198.4,111.2,340.1,322.6,368.4,551.5c15.3,135.1-39.2,353.1-119.9,470.8c-32.7,50.1-320.4,316.1-638.7,592.9c-320.4,274.7-625.6,540.6-680.1,588.6c-95.9,87.2-104.6,106.8-440.3,980.9c-470.8,1229.4-518.8,1321-778.2,1499.7c-159.1,111.2-869.8,346.6-1316.6,440.3c-93.7,19.6-172.2,37.1-176.6,39.2c-2.2,4.4,41.4,43.6,95.9,87.2C6156.8,1879.6,6329,2248,6329,2655.6c0,372.8-124.2,673.6-388,939.5C5616.2,3926.5,5156.2,4061.6,4702.8,3963.5z M5241.2,3514.5c209.3-52.3,451.2-255,551.5-462.1c222.3-451.2,37.1-972.2-420.7-1198.9c-133-65.4-157-69.8-372.8-69.8c-215.8,0-239.8,4.4-372.8,69.8c-564.6,279-688.8,994-250.7,1432.2C4613.4,3518.8,4912.1,3597.3,5241.2,3514.5z M5343.7,1138.4c405.5-43.6,671.4-106.8,1264.3-296.5c355.3-113.3,455.6-174.4,547.2-337.9c34.9-61,235.4-553.7,442.5-1094.3c324.8-845.8,388-994,453.4-1059.4c43.6-41.4,364-324.8,715-630c353.1-303,649.6-575.5,660.5-606c78.5-209.3-78.5-409.8-281.2-357.5c-122.1,34.9-231.1,111.2-767.3,540.6C7480-1981,7567.1-2083.4,7137.7-1279.1c-163.5,305.2-313.9,560.2-351,595.1c-124.3,111.2-300.8,56.7-348.8-111.2c-17.4-54.5-21.8-353.1-17.4-909l6.5-828.3l61-124.3c106.8-220.2,331.3-401.1,1246.9-1009.3c486.1-322.6,688.8-512.3,728.1-680.1c34.9-146.1,17.4-222.4-69.8-305.2c-265.9-252.9-706.3-298.6-2816.4-285.5c-1277.4,8.7-1336.2,10.9-1497.6,54.5c-252.9,71.9-379.3,133-466.5,228.9c-69.7,78.5-78.5,98.1-67.6,174.4c13.1,104.6,78.5,178.7,213.6,246.3c235.4,119.9,462.1,172.2,1600,359.7c911.2,150.4,957,161.3,1013.6,235.4c82.8,102.5,48,255-71.9,320.4l-76.3,41.4l-706.3-115.5c-1266.5-204.9-1632.7-285.6-1911.7-420.7c-231.1-111.2-370.6-239.8-449.1-412c-80.7-178.7-74.1-409.8,15.3-582l58.8-113.4h-549.3c-579.9,0-704.1,15.3-887.2,109c-279,141.7-357.5,420.7-189.6,669.2c87.2,128.6,283.4,279,701.9,534.1c843.6,516.6,1098.7,717.2,1212,943.9c52.3,109,52.3,109,58.9,948.2c4.4,562.4,0,865.4-17.4,919.9c-50.1,174.4-233.3,226.7-357.5,100.3c-37.1-39.2-196.2-307.4-348.8-595.1c-422.9-791.3-335.7-691-1214.2-1397.3c-540.6-433.8-664.9-523.2-782.6-553.7c-104.6-28.3-213.6,8.7-268.1,93.7c-45.8,71.9-48,228.9-2.2,294.3c17.4,26.2,237.6,224.5,483.9,438.1c760.8,654,904.6,782.6,941.7,845.8c21.8,32.7,202.7,488.3,401.1,1011.5C2614.5-34.4,2808.5,443,2843.4,506.2c34.9,61,104.6,141.7,154.8,176.6c170,124.3,1052.9,381.5,1493.2,436C4870.7,1166.8,5053.8,1171.1,5343.7,1138.4z"/></g></g>
</svg>